<?xml version="1.0" encoding="UTF-8"?>
<svg id="Layer_1" data-name="Layer 1" xmlns="http://www.w3.org/2000/svg" viewBox="0 0 302.26 90.45">
  <defs>
    <style>
      .cls-1 {
        font-family: Montserrat-Medium, Montserrat;
        font-size: 18.72px;
        font-weight: 500;
      }

      .cls-1, .cls-2 {
        fill: #009ade;
      }

      .cls-3 {
        letter-spacing: .27em;
      }

      .cls-4 {
        letter-spacing: .28em;
      }

      .cls-5 {
        letter-spacing: .28em;
      }

      .cls-6 {
        letter-spacing: .16em;
      }

      .cls-7 {
        letter-spacing: .15em;
      }

      .cls-8 {
        letter-spacing: .15em;
      }

      .cls-9 {
        fill: none;
        stroke: #009ade;
        stroke-miterlimit: 10;
      }
    </style>
  </defs>
  <g id="swExoY.tif">
    <g>
      <path class="cls-2" d="M.38,24.21q3.91-.17,3.91-4.22c0-3.01.07-6.02-.03-9.03-.04-1.39.51-1.68,1.77-1.66,3.84.07,7.68.07,11.52,0,1.22-.02,1.64.31,1.61,1.58-.08,3.89.01,7.79-.05,11.68-.02,1.19.26,1.67,1.55,1.63,1.45-.05,3.35-.67,4.27.26.99,1,.3,2.91.33,4.42.05,2.89-.02,5.78.03,8.67.02,1.06-.32,1.5-1.41,1.44-1.24-.07-2.48,0-3.72-.02-.76-.02-1.04.3-1.04,1.05.02,7.49-.04,14.99.07,22.48.04,2.56,2.39,4.48,5.49,4.86.7.09,1.41.09,2.12.1q2.72.03,2.72,2.85c0,3.36-.01,6.73,0,10.09,0,.86-.09,1.47-1.19,1.51-8.61.27-15.9-2.39-21.23-9.45-2.29-3.03-2.76-6.6-2.8-10.22-.09-7.08-.07-14.16.01-21.24.02-1.6-.38-2.29-2.04-2.04-.75.11-1.53.06-2.29.08v-.71c.6-.51.34-1.2.34-1.82.03-4.1.03-8.21.04-12.31Z"/>
      <path class="cls-2" d="M129.13,23.45c-2.18-.03-4.37-.28-6.51.42-2.62.87-3.96,2.63-4.07,5.37-.21,5.16-.21,5.12,4.89,5.18,1.69.02,3.85-.75,4.94.35,1.01,1.03.27,3.15.3,4.79.05,2.66-.03,5.31.03,7.97.02,1.11-.27,1.59-1.49,1.55-2.3-.09-4.61.06-6.91-.06-1.45-.07-1.79.48-1.78,1.84.05,9.56,0,19.13.06,28.7.01,1.51-.3,2.06-1.93,2-3.78-.13-7.57-.06-11.35-.03-.88,0-1.44-.09-1.43-1.21.04-17.83-.03-35.66.1-53.49.06-7.58,4.73-12.16,11.03-15.39,4.43-2.28,9.23-2.73,14.12-2.52v14.53Z"/>
      <path class="cls-2" d="M.38,24.21c0,4.1,0,8.21-.04,12.31,0,.61.26,1.3-.34,1.82v-14.17l.38.05Z"/>
      <path class="cls-2" d="M35.51,53.75c0-8.8.03-17.59-.03-26.39,0-1.34.28-1.85,1.74-1.81,5.48.15,10.96-.6,16.46-.04,5.34.54,10.39,1.65,14.38,5.55.71.69,1.56.62,2.32.42.86-.22.47-1.1.48-1.68.06-4.27.05-4.32,4.41-4.2,5.21.14,10.42.51,15.13,3.03,5.73,3.06,8.32,8.3,8.47,14.42.32,12.45.13,24.91.18,37.36,0,.91-.3,1.25-1.23,1.25-4.08-.03-8.16-.05-12.23,0-1.48.02-1.21-.94-1.21-1.78,0-10.68,0-21.37-.02-32.05,0-1.17-.12-2.36-.32-3.51-.43-2.48-2-3.81-4.51-3.91-1.24-.05-2.49.07-3.72-.05-1.41-.13-1.8.38-1.79,1.78.06,8.8.03,17.59.03,26.39,0,3.78-.05,7.56.03,11.33.03,1.36-.32,1.86-1.77,1.82-3.78-.1-7.57-.1-11.35,0-1.41.03-1.78-.39-1.78-1.78.06-10.45.03-20.9.03-31.35,0-.65.01-1.3,0-1.95-.13-5.06-3.24-7.41-8.15-6.21-.5.12-.7.35-.7.83,0,.47,0,.94,0,1.42,0,12.4-.03,24.79.03,37.19,0,1.49-.42,1.9-1.89,1.86-3.78-.1-7.57-.09-11.35,0-1.36.03-1.68-.42-1.67-1.72.05-8.74.03-17.47.03-26.21Z"/>
    </g>
  </g>
  <text class="cls-1" transform="translate(177.07 29.46)"><tspan class="cls-7" x="0" y="0">T</tspan><tspan class="cls-6" x="13.74" y="0">ubos</tspan></text>
  <line class="cls-9" x1="156.1" x2="156.1" y2="90.45"/>
  <text class="cls-1" transform="translate(177.78 51.4)"><tspan class="cls-6" x="0" y="0">M</tspan><tspan class="cls-8" x="20.87" y="0">e</tspan><tspan class="cls-6" x="35.04" y="0">xicanos</tspan></text>
  <text class="cls-1" transform="translate(176.77 73.34)"><tspan class="cls-5" x="0" y="0">Fl</tspan><tspan class="cls-3" x="27.59" y="0">e</tspan><tspan class="cls-4" x="44.01" y="0">xibles</tspan></text>
</svg>